# xmcd
#
# Track frame offsets: 
#        150
#        20506
#        40453
#        63286
#        81838
#        106115
#        125131
#        148105
#        165947
#        183114
#
# Disc length: 2774 seconds
#
# Revision: 2
# Processed by: cddbd v1.5.2PL0 Copyright (c) Steve Scherf et al.
# Submitted via: ExactAudioCopy v0.95b4
#
DISCID=7f0ad40a
DTITLE=John Mayer - Heavier Things
DYEAR=2003
DGENRE=Blues
TTITLE0=Clarity
TTITLE1=Bigger Than My Body
TTITLE2=Something's Missing
TTITLE3=New Deep
TTITLE4=Come Back To Bed
TTITLE5=Home Life
TTITLE6=Split Screen Sadness
TTITLE7=Daughters
TTITLE8=Only Heart
TTITLE9=Wheel
EXTD=
EXTT0=
EXTT1=
EXTT2=
EXTT3=
EXTT4=
EXTT5=
EXTT6=
EXTT7=
EXTT8=
EXTT9=
PLAYORDER=
